<?xml version="1.0" standalone="no"?><!DOCTYPE svg PUBLIC "-//W3C//DTD SVG 1.1//EN" "http://www.w3.org/Graphics/SVG/1.1/DTD/svg11.dtd"><svg t="1731335173413" class="icon" viewBox="0 0 1024 1024" version="1.1" xmlns="http://www.w3.org/2000/svg" p-id="1484" xmlns:xlink="http://www.w3.org/1999/xlink" width="200" height="200"><path d="M343.04 681.813333h147.413333v21.333334h-147.413333zM341.76 745.813333h127.36v21.333334h-127.36zM170.666667 768h128v-85.333333H170.666667z m21.333333-64h85.333333v42.666667H192zM714.88 810.666667h21.333333v21.333333h-21.333333z" fill="#2c2c2c" p-id="1485"></path><path d="M855.68 385.066667V317.866667a132.053333 132.053333 0 0 0-132.266667-128 128 128 0 0 0-128 128V384h-64v85.333333H132.266667A26.666667 26.666667 0 0 0 106.666667 496.213333V576h426.666666v42.666667H128v-28.16H106.666667v217.173333a26.453333 26.453333 0 0 0 25.6 26.24h481.706666A26.453333 26.453333 0 0 0 640 807.68v-38.4h277.333333v-384zM617.173333 317.866667a106.666667 106.666667 0 0 1 106.666667-106.666667 110.72 110.72 0 0 1 111.146667 106.666667v67.2L789.333333 384v-64a64 64 0 0 0-129.92 0v64h-42.666666zM768 320v64h-87.466667v-64a42.666667 42.666667 0 0 1 87.466667 0zM128 554.666667v-58.453334a5.333333 5.333333 0 0 1 4.266667-5.546666H533.333333v64z m490.666667 253.013333a4.906667 4.906667 0 0 1-5.12 4.906667H132.266667a5.12 5.12 0 0 1-4.266667-4.906667V640h405.333333v129.92h85.333334z m277.333333-59.733333H554.666667V405.333333l343.466666 1.92z" fill="#2c2c2c" p-id="1486"></path><path d="M682.24 704.64h-84.266667V597.333333h-21.333333v128.64h105.6v-21.333333zM576.64 533.333333h21.333333v42.666667h-21.333333zM832.213333 450.773333h21.333334v37.333334h-21.333334zM832.213333 512.64h21.333334v41.386667h-21.333334zM725.333333 565.546667a32 32 0 1 0-32-32 32 32 0 0 0 32 32z m0-42.666667a10.666667 10.666667 0 0 1 10.666667 10.666667 10.666667 10.666667 0 0 1-10.666667 10.666666 10.88 10.88 0 0 1-10.666666-10.666666 10.666667 10.666667 0 0 1 10.666666-10.666667z" fill="#2c2c2c" p-id="1487"></path><path d="M693.76 589.013333V682.666667h64v-93.226667a64 64 0 1 0-64 0z m42.666667 71.68h-21.333334V597.333333a62.72 62.72 0 0 0 10.24 0 56.106667 56.106667 0 0 0 10.453334-1.066666zM725.333333 490.666667a42.666667 42.666667 0 1 1-42.666666 42.666666 42.666667 42.666667 0 0 1 42.666666-42.666666z" fill="#2c2c2c" p-id="1488"></path></svg>